<?xml version="1.0" encoding="UTF-8"?>
<svg id="Layer_1" xmlns="http://www.w3.org/2000/svg" viewBox="0 0 43.34 44.52">
  <defs>
    <style>
      .cls-1 {
        fill: #fff;
      }

      .cls-2 {
        fill: none;
      }
    </style>
  </defs>
  <path class="cls-1" d="M31.56,31.5l-16.77-7.03c-.81-.32-.88-1.54-.09-1.96l15.67-8.03c.9-.42,1.86.46,1.46,1.39-2.35,5.67-.51,11.04,1.11,14.17.43.89-.46,1.86-1.38,1.46Z"/>
  <g>
    <line class="cls-2" x1="39.31" y1="21.92" x2="37.25" y2="20.03"/>
    <g>
      <line class="cls-2" x1="42.58" y1="24.93" x2="40.52" y2="23.05"/>
      <path class="cls-1" d="M43.19,25.5c-.13.16-.33.24-.53.26-.21.02-.42-.03-.66-.22l-2.04-1.89-1.88,2.06c-.13.14-.33.23-.54.25-.17.01-.35-.02-.54-.14-.04-.02-.07-.04-.11-.08-.3-.32-.35-.8-.11-1.17l1.89-2.04-1.8-1.65-.25-.23c-.31-.33-.36-.8-.11-1.17.31-.31.8-.36,1.16-.11l.37.33,1.69,1.55,1.88-2.05c.33-.31.8-.36,1.17-.11.16.18.25.4.26.63,0,.18-.04.37-.16.54v.14s-1.87,2.06-1.87,2.06l2.06,1.88c.3.32.35.8.11,1.17Z"/>
    </g>
  </g>
  <g>
    <line class="cls-2" x1="39.95" y1="23.28" x2="40.07" y2="26.07"/>
    <line class="cls-2" x1="39.73" y1="18.89" x2="39.85" y2="21.67"/>
  </g>
  <path class="cls-1" d="M4,22.26c0,10.07,8.19,18.26,18.26,18.26,5.84,0,11.19-2.7,14.67-7.4.66-.88,1.91-1.07,2.8-.41.89.66,1.08,1.91.42,2.8-4.19,5.64-10.88,9.01-17.89,9.01C9.99,44.52,0,34.53,0,22.26S9.99,0,22.26,0c7.57,0,14.55,3.79,18.67,10.14.61.93.34,2.17-.58,2.77-.93.6-2.17.34-2.77-.59-3.39-5.21-9.11-8.32-15.32-8.32C12.19,4,4,12.19,4,22.26Z"/>
</svg>